<?xml version="1.0" encoding="iso-8859-1"?>
<!-- Generator: Adobe Illustrator 19.0.0, SVG Export Plug-In . SVG Version: 6.00 Build 0)  -->
<svg xmlns="http://www.w3.org/2000/svg" xmlns:xlink="http://www.w3.org/1999/xlink" version="1.1" id="Capa_1" x="0px" y="0px" viewBox="0 0 511.999 511.999" style="enable-background:new 0 0 511.999 511.999;" xml:space="preserve" width="512px" height="512px">
<g>
	<g>
		<path d="M90.157,169.849v252.236h331.686V169.849H90.157z M325.197,303.992l-69.444,69.444l-68.987-69.482    c-18.599-18.599-18.599-48.926,0.038-67.563c18.637-18.638,48.964-18.638,67.602-0.001l1.594,1.594l1.594-1.594    c18.638-18.636,48.964-18.636,67.602,0C343.835,255.028,343.835,285.354,325.197,303.992z" fill="#FFFFFF"/>
	</g>
</g>
<g>
	<g>
		<path d="M304.004,257.583c-6.952-6.95-18.264-6.952-25.216,0l-22.787,22.788l-22.787-22.788    c-3.476-3.476-8.042-5.214-12.608-5.214s-9.132,1.737-12.608,5.214c-6.951,6.951-6.951,18.264,0,25.215l47.832,48.175    l48.175-48.174C310.956,275.847,310.956,264.535,304.004,257.583z" fill="#FFFFFF"/>
	</g>
</g>
<g>
	<g>
		<path d="M452.043,43.961h-0.229v408.094H60.185V43.961h-0.229c-32.927,0-59.715,26.788-59.715,59.715v408.323h511.516V103.677    C511.759,70.75,484.97,43.961,452.043,43.961z" fill="#FFFFFF"/>
	</g>
</g>
<g>
	<g>
		<polygon points="389.896,43.961 389.896,103.75 359.924,103.75 359.924,43.961 329.949,43.961 329.949,103.75 299.977,103.75     299.977,43.961 270.002,43.961 270.002,103.75 240.031,103.75 240.031,43.961 210.056,43.961 210.056,103.75 180.084,103.75     180.084,43.961 150.109,43.961 150.109,103.75 120.137,103.75 120.137,43.961 90.157,43.961 90.157,139.878 421.844,139.878     421.844,43.961   " fill="#FFFFFF"/>
	</g>
</g>
<g>
	<g>
		<rect x="120.137" width="29.972" height="43.622" fill="#FFFFFF"/>
	</g>
</g>
<g>
	<g>
		<rect x="60.184" width="29.972" height="43.622" fill="#FFFFFF"/>
	</g>
</g>
<g>
	<g>
		<rect x="421.842" width="29.972" height="43.622" fill="#FFFFFF"/>
	</g>
</g>
<g>
	<g>
		<rect x="180.08" width="29.972" height="43.622" fill="#FFFFFF"/>
	</g>
</g>
<g>
	<g>
		<rect x="240.034" width="29.972" height="43.622" fill="#FFFFFF"/>
	</g>
</g>
<g>
	<g>
		<rect x="299.977" width="29.972" height="43.622" fill="#FFFFFF"/>
	</g>
</g>
<g>
	<g>
		<rect x="359.92" width="29.972" height="43.622" fill="#FFFFFF"/>
	</g>
</g>
<g>
</g>
<g>
</g>
<g>
</g>
<g>
</g>
<g>
</g>
<g>
</g>
<g>
</g>
<g>
</g>
<g>
</g>
<g>
</g>
<g>
</g>
<g>
</g>
<g>
</g>
<g>
</g>
<g>
</g>
</svg>
