<?xml version="1.0" encoding="iso-8859-1"?>
<!-- Generator: Adobe Illustrator 18.0.0, SVG Export Plug-In . SVG Version: 6.00 Build 0)  -->
<!DOCTYPE svg PUBLIC "-//W3C//DTD SVG 1.1//EN" "http://www.w3.org/Graphics/SVG/1.1/DTD/svg11.dtd">
<svg xmlns="http://www.w3.org/2000/svg" xmlns:xlink="http://www.w3.org/1999/xlink" version="1.1" id="Capa_1" x="0px" y="0px" viewBox="0 0 424.9 424.9" style="enable-background:new 0 0 424.9 424.9;" xml:space="preserve" width="512px" height="512px">
<g>
	<g>
		<path d="M212.448,54.604c4.143,0,7.5-3.357,7.5-7.5V7.5c0-4.143-3.357-7.5-7.5-7.5c-4.143,0-7.5,3.357-7.5,7.5v39.604    C204.948,51.246,208.306,54.604,212.448,54.604z" fill="#FFFFFF"/>
		<path d="M175.615,60.242c1.463,1.465,3.383,2.197,5.303,2.197c1.918,0,3.838-0.732,5.303-2.197c2.93-2.93,2.93-7.678,0-10.607    l-28.006-28.004c-2.928-2.928-7.676-2.928-10.606,0.002c-2.93,2.928-2.93,7.678,0,10.606L175.615,60.242z" fill="#FFFFFF"/>
		<path d="M243.986,62.439c1.92,0,3.84-0.732,5.305-2.197l28.002-28.004c2.928-2.93,2.928-7.678-0.002-10.608    c-2.928-2.928-7.676-2.928-10.605,0.002l-28.002,28.004c-2.93,2.928-2.93,7.678,0,10.605    C240.148,61.707,242.068,62.439,243.986,62.439z" fill="#FFFFFF"/>
		<path d="M171.406,178.42c1.969,0,3.9-0.801,5.299-2.199c1.4-1.4,2.201-3.33,2.201-5.301c0-1.971-0.801-3.91-2.201-5.311    c-1.389-1.389-3.33-2.189-5.299-2.189c-1.98,0-3.91,0.801-5.301,2.189c-1.4,1.4-2.199,3.33-2.199,5.311    c0,1.971,0.799,3.9,2.199,5.301C167.495,177.619,169.435,178.42,171.406,178.42z" fill="#FFFFFF"/>
		<path d="M353.657,396.828l-41.072-19.289l-12.539-72.389c10.027-3.328,18.699-9.744,24.898-18.541    c7.66-10.869,10.627-24.07,8.358-37.17L303.997,80.271c-0.707-4.08-4.594-6.816-8.67-6.109L212.45,88.52l-82.877-14.357    c-4.088-0.713-7.963,2.027-8.67,6.109L91.599,249.439c-4.25,24.533,10.326,48.053,33.258,55.707l-12.543,72.392l-41.07,19.289    c-2.963,1.391-4.682,4.545-4.244,7.789c0.436,3.244,2.926,5.83,6.152,6.389l79.566,13.783c0.43,0.074,0.857,0.111,1.283,0.111    c0.059,0,0.117,0,0.178-0.002c4.068-0.086,7.338-3.41,7.338-7.498c0-2.246-0.986-4.262-2.551-5.637L127.095,380.1l12.541-72.4    c0.354,0.006,0.707,0.022,1.061,0.022c24.248,0,44.854-17.363,48.996-41.289l22.758-131.363l22.756,131.363    c4.145,23.924,24.752,41.289,48.998,41.289h0.002c0.352,0,0.705-0.016,1.059-0.022l12.541,72.4l-32.189,31.98    c-2.322,2.307-2.881,5.853-1.377,8.762c1.303,2.522,3.892,4.059,6.66,4.059c0.424,0,0.853-0.037,1.283-0.111l79.566-13.783    c3.225-0.559,5.715-3.145,6.152-6.389C358.337,401.373,356.62,398.219,353.657,396.828z M134.402,90.223l68.539,11.871    l-6.145,35.467l-68.537-11.873L134.402,90.223z M134.71,292.205c-18.895-3.273-31.605-21.311-28.332-40.205l19.32-111.533    l68.537,11.873l-19.322,111.533c-2.895,16.715-17.285,28.848-34.217,28.848C138.706,292.721,136.691,292.547,134.71,292.205z     M131.829,405.947l-32.668-5.658l18.315-8.602L131.829,405.947z M249.986,263.871l-19.32-111.531l68.535-11.873L318.523,252    c1.586,9.152-0.488,18.375-5.84,25.969c-5.35,7.594-13.338,12.65-22.49,14.236c-1.982,0.342-3.996,0.516-5.986,0.516    C267.273,292.721,252.882,280.588,249.986,263.871z M290.497,90.223l6.145,35.465l-68.537,11.873l-6.143-35.467L290.497,90.223z     M293.07,405.947l14.354-14.26l18.314,8.602L293.07,405.947z" fill="#FFFFFF"/>
		<path d="M251.034,158.279c-1.979,0-3.91,0.801-5.309,2.201c-1.391,1.389-2.191,3.32-2.191,5.299c0,1.971,0.801,3.91,2.191,5.301    c1.398,1.4,3.34,2.199,5.309,2.199c1.971,0,3.9-0.799,5.301-2.199c1.4-1.391,2.199-3.33,2.199-5.301    c0-1.979-0.799-3.91-2.199-5.299C254.945,159.08,253.005,158.279,251.034,158.279z" fill="#FFFFFF"/>
		<path d="M296.775,171.08c1.4-1.391,2.201-3.33,2.201-5.301c0-1.969-0.801-3.91-2.201-5.299c-1.4-1.4-3.33-2.201-5.299-2.201    c-1.98,0-3.91,0.801-5.311,2.201c-1.391,1.389-2.189,3.33-2.189,5.299c0,1.971,0.799,3.91,2.189,5.301    c1.4,1.4,3.33,2.199,5.311,2.199C293.445,173.279,295.374,172.48,296.775,171.08z" fill="#FFFFFF"/>
		<path d="M274.896,185.891c-1.98,0-3.91,0.799-5.311,2.199c-1.391,1.391-2.189,3.32-2.189,5.301c0,1.979,0.799,3.91,2.189,5.309    c1.4,1.391,3.33,2.191,5.311,2.191c1.969,0,3.9-0.801,5.299-2.191c1.4-1.398,2.201-3.33,2.201-5.309    c0-1.971-0.801-3.91-2.201-5.301C278.806,186.689,276.865,185.891,274.896,185.891z" fill="#FFFFFF"/>
		<path d="M133.425,183.391c-1.971,0-3.9,0.799-5.301,2.189c-1.389,1.4-2.199,3.33-2.199,5.311c0,1.969,0.811,3.898,2.199,5.299    c1.4,1.4,3.33,2.201,5.301,2.201s3.91-0.801,5.311-2.201c1.389-1.4,2.189-3.33,2.189-5.299c0-1.98-0.801-3.91-2.189-5.311    C137.335,184.189,135.406,183.391,133.425,183.391z" fill="#FFFFFF"/>
		<path d="M169.185,208.16c0-1.971-0.799-3.91-2.199-5.301c-1.391-1.398-3.33-2.199-5.301-2.199c-1.969,0-3.9,0.801-5.299,2.199    c-1.4,1.391-2.201,3.33-2.201,5.301c0,1.98,0.801,3.91,2.201,5.301c1.398,1.398,3.33,2.199,5.299,2.199    c1.971,0,3.91-0.801,5.301-2.199C168.386,212.07,169.185,210.131,169.185,208.16z" fill="#FFFFFF"/>
	</g>
</g>
<g>
</g>
<g>
</g>
<g>
</g>
<g>
</g>
<g>
</g>
<g>
</g>
<g>
</g>
<g>
</g>
<g>
</g>
<g>
</g>
<g>
</g>
<g>
</g>
<g>
</g>
<g>
</g>
<g>
</g>
</svg>
