<?xml version="1.0" encoding="iso-8859-1"?>
<!-- Generator: Adobe Illustrator 19.0.0, SVG Export Plug-In . SVG Version: 6.00 Build 0)  -->
<svg xmlns="http://www.w3.org/2000/svg" xmlns:xlink="http://www.w3.org/1999/xlink" version="1.1" id="Capa_1" x="0px" y="0px" viewBox="0 0 512 512" style="enable-background:new 0 0 512 512;" xml:space="preserve" width="512px" height="512px">
<g>
	<g>
		<g>
			<path d="M511.934,235.629c-0.006-0.117-0.014-0.234-0.021-0.351c-0.489-8.04-3.237-15.681-8.038-22.237     c-0.184-0.252-0.379-0.493-0.582-0.723c-2.202-2.886-4.77-5.507-7.686-7.751l-64.615-49.747v-33.9     c0-22.313-18.153-40.467-40.467-40.467h-56.127l-44.149-33.99c-20.166-15.523-48.332-15.523-68.498,0l-44.149,33.99h-56.127     c-22.313,0-40.467,18.153-40.467,40.467v33.9l-64.614,49.746c-2.916,2.244-5.484,4.865-7.687,7.751     c-0.203,0.23-0.397,0.471-0.582,0.723c-4.801,6.557-7.549,14.197-8.038,22.237c-0.007,0.117-0.015,0.233-0.021,0.351     C0.027,236.375,0,237.124,0,237.876v206.688c0,17.984,14.632,32.616,32.616,32.616h446.768c17.984,0,32.616-14.632,32.616-32.616     V237.876C512,237.124,511.973,236.375,511.934,235.629z M430.992,180.062l47.712,36.732l-47.712,25.666V180.062z M233.952,62.312     c6.491-4.998,14.269-7.496,22.048-7.496c7.777,0,15.558,2.5,22.048,7.496l23.565,18.143h-91.226L233.952,62.312z      M101.008,139.423v-18.502c0-11.285,9.182-20.467,20.467-20.467h30.149h32.785h143.182h32.785h30.149     c11.285,0,20.467,9.182,20.467,20.467v18.502v25.241v88.555l-86.668,46.622c-0.184-0.977-0.391-1.953-0.65-2.924     c-3.117-11.714-11.27-21.077-22.366-25.691c-11.137-4.629-23.662-3.807-34.369,2.258L256,279.679l-10.938-6.196     c-10.705-6.064-23.233-6.887-34.369-2.258c-11.097,4.614-19.249,13.978-22.366,25.691c-0.259,0.972-0.466,1.947-0.65,2.924     l-86.668-46.622v-88.554h-0.001V139.423z M304.73,310.38c-0.526,3.065-1.789,5.992-3.756,8.545l-21.313,27.651l-21.201,27.505     c-0.812,1.053-1.889,1.21-2.459,1.21s-1.647-0.157-2.459-1.209l-21.201-27.506l-21.313-27.651     c-1.968-2.553-3.231-5.48-3.757-8.545c-0.467-2.72-0.355-5.547,0.383-8.321c1.504-5.653,5.41-10.161,10.717-12.366     c2.324-0.967,4.738-1.446,7.158-1.446c3.284,0,6.58,0.884,9.676,2.638l15.867,8.988c3.057,1.732,6.801,1.732,9.857,0     l15.867-8.988c5.378-3.047,11.358-3.469,16.834-1.192c5.307,2.206,9.213,6.714,10.717,12.367     C305.085,304.834,305.197,307.661,304.73,310.38z M81.008,180.062v62.398l-47.711-25.666L81.008,180.062z M20,443.394V237.876     c0-1.758,0.219-3.498,0.632-5.184L86.269,268c0.001,0.001,0.001,0.001,0.002,0.001l84.912,45.677L20,443.394z M34.645,457.181     L190.06,323.833l0.905,0.487c1.164,2.377,2.563,4.664,4.221,6.815l42.515,55.158c4.408,5.719,11.078,8.999,18.299,8.999     s13.891-3.28,18.299-9l42.516-55.157c1.658-2.151,3.057-4.438,4.221-6.815l0.905-0.486l155.414,133.347H34.645z M491.999,443.394     L340.817,313.678l84.912-45.677c0.001,0,0.002-0.001,0.003-0.002l65.635-35.307c0.413,1.686,0.632,3.426,0.632,5.184V443.394z" fill="#FFFFFF"/>
			<path d="M309.43,171.444c0.25,0.6,0.561,1.18,0.92,1.72c0.37,0.55,0.79,1.06,1.25,1.52c0.46,0.46,0.97,0.88,1.521,1.24     c0.54,0.36,1.12,0.67,1.72,0.92c0.6,0.25,1.229,0.45,1.87,0.57c0.649,0.13,1.31,0.2,1.96,0.2c0.649,0,1.31-0.07,1.95-0.2     c0.64-0.12,1.27-0.32,1.87-0.57c0.6-0.25,1.189-0.56,1.729-0.92c0.55-0.36,1.061-0.78,1.521-1.24c0.46-0.46,0.88-0.97,1.239-1.52     c0.36-0.54,0.67-1.12,0.92-1.72c0.25-0.61,0.44-1.24,0.57-1.881c0.13-0.64,0.2-1.3,0.2-1.949c0-0.65-0.07-1.311-0.2-1.95     c-0.13-0.641-0.32-1.271-0.57-1.87c-0.25-0.61-0.56-1.19-0.92-1.73c-0.359-0.55-0.779-1.06-1.239-1.52     c-0.46-0.46-0.971-0.88-1.521-1.24c-0.54-0.359-1.13-0.67-1.729-0.92c-0.601-0.25-1.23-0.45-1.87-0.57     c-1.29-0.26-2.62-0.26-3.91,0c-0.641,0.12-1.271,0.32-1.87,0.57s-1.18,0.561-1.72,0.92c-0.551,0.36-1.061,0.78-1.521,1.24     c-0.46,0.46-0.88,0.97-1.25,1.52c-0.359,0.54-0.67,1.12-0.92,1.73c-0.25,0.6-0.439,1.229-0.57,1.87     c-0.13,0.64-0.189,1.3-0.189,1.95c0,0.649,0.06,1.31,0.189,1.949C308.99,170.204,309.18,170.834,309.43,171.444z" fill="#FFFFFF"/>
			<path d="M193.333,177.615h85.334c5.522,0,10-4.478,10-10c0-5.522-4.478-10-10-10h-85.334c-5.522,0-10,4.478-10,10     C183.333,173.137,187.811,177.615,193.333,177.615z" fill="#FFFFFF"/>
			<path d="M193.333,228.949h125.334c5.522,0,10-4.478,10-10c0-5.522-4.478-10-10-10H193.333c-5.522,0-10,4.478-10,10     C183.333,224.471,187.811,228.949,193.333,228.949z" fill="#FFFFFF"/>
		</g>
	</g>
</g>
<g>
</g>
<g>
</g>
<g>
</g>
<g>
</g>
<g>
</g>
<g>
</g>
<g>
</g>
<g>
</g>
<g>
</g>
<g>
</g>
<g>
</g>
<g>
</g>
<g>
</g>
<g>
</g>
<g>
</g>
</svg>
