<?xml version="1.0" encoding="iso-8859-1"?>
<!-- Generator: Adobe Illustrator 19.0.0, SVG Export Plug-In . SVG Version: 6.00 Build 0)  -->
<svg xmlns="http://www.w3.org/2000/svg" xmlns:xlink="http://www.w3.org/1999/xlink" version="1.1" id="Capa_1" x="0px" y="0px" viewBox="0 0 512 512" style="enable-background:new 0 0 512 512;" xml:space="preserve" width="512px" height="512px">
<g>
	<g>
		<path d="M321.129,301.616c-9.477-9.48-22.078-14.701-35.484-14.701c-10.81,0-21.097,3.394-29.645,9.68    c-8.548-6.286-18.835-9.68-29.645-9.68c-13.405,0-26.007,5.22-35.485,14.7c-19.565,19.565-19.565,51.402,0,70.968l59.291,59.29    c1.612,1.612,3.726,2.419,5.839,2.419c2.113,0,4.227-0.807,5.84-2.419l59.287-59.289c9.48-9.478,14.701-22.081,14.701-35.485    C335.828,323.694,330.607,311.092,321.129,301.616z M309.448,360.904L256,414.355l-53.452-53.45    c-13.125-13.127-13.125-34.485,0.001-47.612c6.359-6.36,14.813-9.862,23.806-9.862c8.992,0,17.447,3.502,23.805,9.862    c1.548,1.549,3.649,2.419,5.84,2.419c2.19,0,4.291-0.87,5.84-2.419c6.358-6.36,14.813-9.862,23.805-9.862    s17.446,3.502,23.804,9.863c6.36,6.358,9.862,14.811,9.862,23.804C319.311,346.09,315.808,354.545,309.448,360.904z" fill="#FFFFFF"/>
	</g>
</g>
<g>
	<g>
		<path d="M498.233,88.085h-57.861c-0.342-20.007-2.222-41.399-10.034-57.612C420.594,10.253,402.693,0,377.131,0    c-18.179,0-42.985,5.008-64.736,13.07c-16.704,6.191-37.972,16.485-49.249,31.474c-2.339-0.322-4.721-0.501-7.146-0.501    c-2.421,0-4.801,0.18-7.136,0.5c-11.278-14.988-32.545-25.282-49.248-31.472C177.865,5.008,153.059,0,134.88,0    c-25.562,0-43.464,10.253-53.207,30.473c-7.813,16.213-9.692,37.605-10.034,57.612H13.767c-4.561,0-8.258,3.697-8.258,8.258    v99.098c0,4.561,3.697,8.258,8.258,8.258H27.53v300.043c0,4.561,3.697,8.258,8.258,8.258h440.424c4.561,0,8.258-3.697,8.258-8.258    V228.473c0-4.561-3.697-8.258-8.258-8.258c-4.561,0-8.258,3.697-8.258,8.258v267.011H44.046V203.699h454.187    c4.561,0,8.258-3.697,8.258-8.258V96.343C506.491,91.783,502.795,88.085,498.233,88.085z M256,60.558    c16.889,0.001,31.073,11.765,34.813,27.527h-69.625C224.927,72.323,239.111,60.558,256,60.558z M203.7,187.183H22.025v-82.582    H203.7V187.183z M204.358,88.085H88.157c0.316-18.061,1.931-37.032,8.394-50.442c6.946-14.414,19.125-21.127,38.329-21.127    c16.105,0,39.262,4.726,58.996,12.04c16.71,6.193,29.904,13.742,37.843,21.486C217.407,57.578,206.993,71.548,204.358,88.085z     M291.784,187.181h-71.569v-82.58h71.569V187.181z M280.235,50.019c19.794-19.567,68.936-33.503,96.896-33.503    c19.204,0,31.382,6.713,38.329,21.127c6.462,13.411,8.077,32.381,8.395,50.443H307.643    C305.005,71.531,294.57,57.549,280.235,50.019z M489.976,187.183L489.976,187.183H308.301v-82.582h181.675V187.183z" fill="#FFFFFF"/>
	</g>
</g>
<g>
	<g>
		<path d="M377.427,304.864c-5.087-13.818-12.464-26.591-21.912-37.954c-9.392-11.286-20.513-20.832-33.076-28.363    c-12.828-7.685-26.756-13.036-41.411-15.911l-0.088-0.022c-8.17-1.596-16.548-2.4-24.938-2.4c-16.087,0-31.777,2.918-46.642,8.665    c-14.358,5.549-27.515,13.565-39.099,23.816c-23.442,20.766-38.559,49.229-42.567,80.157c-0.583,4.514,2.62,8.654,7.135,9.249    c0.353,0.044,0.716,0.066,1.068,0.066c4.129,0,7.652-3.094,8.181-7.201c3.48-26.954,16.67-51.772,37.117-69.884    c10.097-8.952,21.57-15.943,34.089-20.789c12.97-5.02,26.657-7.564,40.684-7.564H256c7.289,0,14.589,0.704,21.679,2.081    c0.056,0.011,0.121,0.022,0.176,0.033h0.011c12.762,2.51,24.906,7.179,36.082,13.884c10.956,6.562,20.666,14.886,28.859,24.73    c8.247,9.921,14.688,21.063,19.126,33.12c4.602,12.475,6.926,25.6,6.926,39.011c0,15.249-2.984,30.026-8.863,43.932    c-5.682,13.422-13.819,25.49-24.191,35.873c-10.383,10.372-22.45,18.509-35.873,24.19c-13.906,5.88-28.683,8.864-43.932,8.864    h-0.033c-13.896,0-27.471-2.499-40.343-7.432c-12.431-4.768-23.838-11.649-33.901-20.458    c-20.359-17.815-33.66-42.281-37.447-68.894c-0.574-4.038-4.086-7.088-8.161-7.088c-0.396,0-0.792,0.022-1.178,0.077    c-2.191,0.308-4.118,1.453-5.439,3.215c-1.332,1.773-1.883,3.942-1.575,6.122c4.349,30.555,19.599,58.61,42.942,79.023    c11.539,10.085,24.62,17.969,38.868,23.43c14.754,5.648,30.323,8.522,46.267,8.522c17.462,0,34.408-3.425,50.363-10.163    c15.403-6.519,29.233-15.844,41.114-27.725c11.88-11.88,21.217-25.721,27.725-41.125c6.749-15.954,10.174-32.9,10.174-50.362    C385.376,334.207,382.7,319.155,377.427,304.864z" fill="#FFFFFF"/>
	</g>
</g>
<g>
</g>
<g>
</g>
<g>
</g>
<g>
</g>
<g>
</g>
<g>
</g>
<g>
</g>
<g>
</g>
<g>
</g>
<g>
</g>
<g>
</g>
<g>
</g>
<g>
</g>
<g>
</g>
<g>
</g>
</svg>
